<svg width="332" height="56" viewBox="0 0 332 56" fill="none" xmlns="http://www.w3.org/2000/svg">
<g clip-path="url(#clip0_552_84772)">
<path d="M137.127 56C131.556 56 125.985 56 120.414 56C116.836 55.3183 113.141 55.7078 109.562 54.9482C105.307 54.0327 100.974 53.5068 96.7568 52.2017C90.8764 50.3903 84.8412 49.1437 78.7866 48.0139C74.8985 47.2932 70.9331 46.3388 67.2771 44.6831C64.3949 43.3586 61.2806 42.7548 58.321 41.5861C54.9746 40.2616 51.9763 38.4306 48.92 36.6386C48.0302 36.1127 47.1598 35.7037 46.1539 35.6063C40.757 35.0219 35.3988 35.392 29.9826 35.801C25.0113 36.1906 19.982 35.84 14.9913 35.3336C14.469 35.2751 13.9274 34.983 13.4051 35.0803C9.76853 35.801 6.8283 34.087 3.81069 32.4508C1.54749 31.2237 0.270811 29.3537 0.232124 26.8605C0.21278 24.231 0 21.6014 0 18.9718C0.85112 15.3294 2.53402 13.7906 6.17062 13.2842C13.5792 12.2323 21.1039 12.0765 28.4932 10.9468C35.5729 9.856 42.7107 9.17426 49.7905 8.08348C56.406 7.03165 63.0215 5.90191 69.6371 4.86957C75.769 3.91513 82.0557 2.84383 88.3617 3.87617C89.0581 3.99304 89.7738 4.07096 90.4315 3.91513C95.6156 2.76591 100.896 3.4087 106.1 3.01913C110.936 2.66852 115.752 3.56452 120.608 3.07757C124.902 2.64904 129.235 2.88278 133.394 1.40244C134.651 0.954436 136.024 1.03235 137.359 0.934957C142.679 0.603827 148.017 0.448001 153.337 -0.0389557C161.693 -0.0389557 170.05 -0.0389557 178.406 -0.0389557C181.656 0.506436 184.983 -0.0973905 188.194 0.740175C189.393 2.688 191.076 3.62296 193.417 3.56452C195.042 3.52557 196.125 4.24626 196.164 6.19409C196.183 7.83026 197.034 9.31061 197.518 10.8689C198.214 13.1478 199.471 14.6477 202.199 14.4918C204.095 14.3944 205.139 16.1475 205.178 18.9523C205.12 17.2383 206.455 16.0501 206.803 14.4723C206.996 13.5958 207.847 13.3816 208.679 13.4595C211.909 13.7711 215.12 13.0115 218.37 13.3816C220.285 13.5958 222.046 12.096 223.98 12.135C227.887 12.2129 231.775 12.3882 235.702 12.057C236.882 11.9597 238.352 11.687 238.836 13.5958C239.319 15.5047 239.474 17.1214 237.172 18.2317C238.565 17.9784 239.165 17.1993 239.513 16.167C239.861 15.1346 240.461 14.2191 240.925 13.2452C241.602 11.8623 242.55 11.2779 244.117 11.9012C245.974 12.6414 247.676 11.9402 249.107 10.8299C250.519 9.71965 251.699 9.75861 253.344 10.3819C255.549 11.239 258.025 11.4337 259.63 13.5179C260.829 15.0567 261.294 16.6734 260.675 18.0563C260.888 17.7642 261.042 17.024 260.752 16.0696C260.404 14.9788 260.385 13.8296 260.771 12.6803C261.062 11.8038 260.907 10.9273 260.23 10.304C258.895 9.05739 259.205 7.8887 260.211 6.66157C261.236 6.11617 262.338 6.34991 263.402 6.38887C269.805 6.66157 276.227 6.73948 282.591 6.4473C288.82 6.17461 294.99 6.9927 301.238 6.58365C306.21 6.25252 311.22 7.24591 316.23 7.4407C318.357 7.51861 320.389 7.28487 322.42 6.85635C323.832 6.56417 325.108 6.62261 326.482 7.03165C330.273 8.20035 331.84 10.4209 331.511 14.375C331.356 16.2254 331.647 18.0758 331.588 19.9263C331.492 22.9064 329.944 24.9906 327.081 25.8282C326.559 25.984 325.96 26.1203 325.65 26.5489C323.677 29.4122 320.408 29.5096 317.545 30.4056C315.785 30.951 314.179 31.8859 312.458 32.5092C309.711 33.4831 307.041 34.0285 304.159 33.6974C303.772 33.6584 303.347 33.6 302.999 33.7363C299.42 35.2167 295.609 35.4894 291.857 36.1127C291.102 36.2296 290.367 36.5023 289.593 36.3075C287.562 35.7816 285.589 35.9569 283.713 36.8334C280.599 38.3137 277.194 37.7294 273.944 38.2553C268.47 39.1123 262.977 39.7746 257.541 40.8654C256.535 41.0602 255.587 41.1381 254.562 40.9823C251.951 40.6122 249.397 40.5927 246.767 41.3329C244.871 41.8588 242.782 41.664 240.828 42.151C237.269 43.047 233.594 42.8522 229.996 43.1833C225.605 43.5923 221.078 44.0598 216.629 43.2223C215.024 42.9106 213.38 42.8911 211.793 43.2028C209.704 43.6118 207.654 43.3976 205.584 43.2807C202.45 43.1054 199.491 43.3002 196.551 45.1311C190.361 48.9489 183.571 51.4616 176.22 51.968C171.965 52.2602 167.903 53.5652 163.686 54.0327C157.476 54.7144 151.248 55.513 145 55.591C142.369 55.7078 139.758 55.7078 137.127 56Z" fill="white"/>
<path d="M187.614 0.642784C196.377 2.82435 205.333 3.87618 214.289 4.73322C218.409 5.12278 222.587 5.51235 226.765 5.68765C236.205 6.0967 245.683 5.376 255.084 6.85635C256.806 7.12904 259.456 6.44731 261.255 6.36939C260.83 7.36278 260.559 8.27826 261.274 8.84313C262.009 9.408 262.493 10.2845 262.184 11.1026C261.294 13.3231 261.371 15.641 261.178 17.959C261.062 19.264 260.094 20.1016 258.876 20.2769C257.599 20.4717 257.967 19.0692 257.522 18.4264C256.709 17.2383 257.754 16.8877 258.605 16.7903C260.597 16.5176 260.23 15.4657 259.398 14.4139C258.296 12.992 256.961 11.8038 255.065 11.4727C254.001 11.2779 252.937 10.9857 251.931 10.5962C251.08 10.265 250.423 10.4014 249.804 10.9857C247.831 12.8362 245.567 13.2842 243.014 12.3687C242.318 12.1155 242.008 12.583 241.757 13.0699C241.273 14.0243 240.557 14.9009 240.461 16.0306C240.267 18.407 237.927 18.4654 236.553 19.5757C236.05 19.9847 235.663 19.225 235.431 18.7186C235.102 18.0174 234.774 17.3162 234.425 16.615C234.213 16.2059 233.864 15.7579 234.251 15.3489C234.677 14.8814 235.102 15.271 235.451 15.5631C235.954 15.9527 236.476 16.3423 237.114 15.8358C237.772 15.3294 237.733 14.6477 237.54 13.927C237.346 13.2452 237.25 12.544 236.263 12.5635C235.044 12.6024 233.806 12.1544 232.568 12.6414C229.725 13.7711 226.804 12.1739 223.941 12.7777C223.864 12.7972 223.767 12.7193 223.709 12.7388C219.57 14.5503 214.966 12.953 210.768 14.4139C210.613 14.4723 210.42 14.5892 210.343 14.5503C208.254 13.4205 207.441 14.5113 206.551 16.3228C205.72 18.0174 205.197 19.5757 205.913 21.6403C205.023 21.1923 204.385 20.8223 203.708 20.5301C202.663 20.0626 202.315 19.6146 203.011 18.4264C204.037 16.6539 202.973 14.7256 200.826 14.7061C197.808 14.6866 196.589 12.8167 195.699 10.4403C195.371 9.56383 195.139 8.66783 194.887 7.77183C194.326 5.72661 194.345 3.42818 190.902 3.89565C189.858 4.05148 187.827 2.688 187.614 0.642784Z" fill="white"/>
<path d="M201.58 13.4595C200.477 13.3816 199.491 12.953 199.394 11.8233C199.278 10.5572 200.4 10.4403 201.309 10.4014C202.373 10.3624 203.069 10.9857 203.205 12.0376C203.34 13.1673 202.508 13.4205 201.58 13.4595Z" fill="white"/>
<path d="M208.234 11.7064C208.331 10.0897 209.337 10.0313 210.459 10.1092C209.724 10.6351 208.969 11.1805 208.234 11.7064Z" fill="white"/>
</g>
<defs>
<clipPath id="clip0_552_84772">
<rect width="331.608" height="56" fill="white"/>
</clipPath>
</defs>
</svg>
