<svg width="431" height="410" viewBox="0 0 431 410" fill="none" xmlns="http://www.w3.org/2000/svg">
<path d="M169.319 13.743C197.323 -4.44752 233.895 -4.44754 261.899 13.743L291.364 32.883C297.904 37.1313 305.034 40.4577 312.54 42.7625L346.358 53.1465C378.499 63.0152 401.301 90.7156 404.081 123.268L407.005 157.519C407.655 165.121 409.416 172.596 412.236 179.718L424.94 211.806C437.015 242.303 428.877 276.845 404.34 299.246L378.521 322.817C372.791 328.048 367.857 334.042 363.867 340.619L345.892 370.249C328.808 398.409 295.858 413.781 262.481 409.163L227.361 404.304C219.566 403.225 211.652 403.225 203.857 404.304L168.738 409.163C135.36 413.781 102.41 398.409 85.3265 370.249L67.3514 340.619C63.3617 334.042 58.4275 328.048 52.6969 322.817L26.8786 299.246C2.34118 276.845 -5.79693 242.303 6.27776 211.806L18.9827 179.718C21.8027 172.596 23.5637 165.121 24.2129 157.519L27.1376 123.268C29.9172 90.7157 52.7196 63.0152 84.8598 53.1465L118.678 42.7626C126.184 40.4577 133.314 37.1313 139.854 32.883L169.319 13.743Z" fill="white"/>
</svg>
